<?xml version="1.0" encoding="UTF-8"?>
<svg width="229px" height="114px" viewBox="0 0 229 114" version="1.1" xmlns="http://www.w3.org/2000/svg" xmlns:xlink="http://www.w3.org/1999/xlink">
    <!-- Generator: Sketch 47.1 (45422) - http://www.bohemiancoding.com/sketch -->
    <title>Group 9</title>
    <desc>Created with Sketch.</desc>
    <defs>
        <path d="M9.13043478,11.8695652 L9.13043478,18.7173913 C9.13043478,19.9780413 9.74361002,21 10.5,21 C11.25639,21 11.8695652,19.9780413 11.8695652,18.7173913 L11.8695652,11.8695652 L18.7173913,11.8695652 C19.9780413,11.8695652 21,11.25639 21,10.5 C21,9.74361002 19.9780413,9.13043478 18.7173913,9.13043478 L11.8695652,9.13043478 L11.8695652,2.2826087 C11.8695652,1.02195872 11.25639,0 10.5,0 C9.74361002,0 9.13043478,1.02195872 9.13043478,2.2826087 L9.13043478,9.13043478 L2.2826087,9.13043478 C1.02195872,9.13043478 0,9.74361002 0,10.5 C0,11.25639 1.02195872,11.8695652 2.2826087,11.8695652 L9.13043478,11.8695652 Z" id="path-1"></path>
        <path d="M32.6780093,0 C36.464208,7.68765609 19.0938377,12.4564701 17.4789352,18.8559999 C15.9997405,24.7485017 27.7790229,31.5728372 27.7925926,31.5728372 C26.0012731,29.133618 24.6984954,27.1466095 22.9071759,23.3507441 C19.8809308,16.9375116 40.8475133,10.3050232 32.6780093,0 Z M45.162963,10.524279 C45.162963,10.524279 31.9451985,11.3875997 31.2666667,19.5137674 C30.9681152,23.1314883 34.7407407,25.1047907 34.8493056,27.7358604 C34.9443006,29.8873073 32.5694444,31.5728372 32.5694444,31.5728372 C32.5694444,31.5728372 36.4506383,31.010995 37.7805556,27.7358604 C39.2461806,24.1044369 35.2699951,21.4459584 35.7178241,18.5271162 C36.1385136,15.7316046 45.162963,10.524279 45.162963,10.524279 Z M20.51875,31.5728372 C20.51875,31.5728372 6.94814815,31.490618 6.94814815,35.300186 C6.94814815,39.287902 24.6577827,39.5071578 37.3462963,37.0542325 C37.3462963,37.0542325 40.2504068,35.4920366 41.1460648,34.6424185 C32.8272867,36.3279485 14.4391204,35.7661064 14.4391204,34.3135348 C14.4391204,32.9705948 20.51875,31.5728372 20.51875,31.5728372 Z M47.5513889,31.6824651 C46.0586244,31.6139485 44.4030093,32.0935715 42.9916667,33.1076279 C45.9229167,32.4635631 48.4199074,34.2861297 48.4199074,36.3964651 C48.4199074,41.1241677 41.6888889,45.6052092 41.6888889,45.6052092 C41.6888889,45.6052092 52.1111111,44.3993023 52.1111111,36.6157209 C52.1111111,33.3954003 50.0348099,31.792093 47.5513889,31.6824651 Z M15.7418981,38.5890232 C13.6248843,38.5890232 10.4222222,40.3567723 10.4222222,41.9874884 C10.4222222,45.2763255 26.3948197,47.7703622 38.2148148,42.9741394 L34.0893519,40.3430697 C26.0691253,43.0015482 11.3721661,42.1382276 15.7418981,38.5890232 Z M18.6731481,45.6052092 C15.7554679,45.6052092 13.8962963,47.6607343 13.8962963,49.1133022 C13.8962963,53.5943438 31.3073793,53.676563 38.2148148,49.1133022 L33.8722222,46.3726046 C28.7153935,48.7570134 15.6876157,49.0584883 18.6731481,45.6052092 Z M6.07962963,52.5117674 C1.9270272,52.3747342 0,54.4850697 0,56.2391162 C0,65.5574883 45.162963,65.214902 45.162963,55.6909767 C45.162963,54.1150746 43.4123562,53.3065714 42.774537,52.950279 C46.4657407,62.0630979 5.42824074,61.3916278 5.42824074,56.0198604 C5.42824074,54.8002508 7.54525463,53.5943438 10.3136574,54.156186 C10.3136574,54.156186 9.37728675,52.9639816 8.0337963,52.7310232 C7.34169473,52.6076927 6.67673611,52.52547 6.07962963,52.5117674 Z M52.1111111,59.5279534 C44.9458333,66.612656 25.21418,70.9155531 6.94814815,66.5441394 C25.2956019,74.0536511 52.0296892,68.2296694 52.1111111,59.5279534 Z" id="path-2"></path>
    </defs>
    <g id="ICONS" stroke="none" stroke-width="1" fill="none" fill-rule="evenodd">
        <g id="Group-9">
            <g id="I_spring_cloud-Copy-18" opacity="0.501132246" transform="translate(0.000000, 1.000000)" fill-rule="nonzero" fill="#FFFFFF">
                <path d="M58.8591207,17.3774493 C58.2150645,13.0202434 56.8817549,8.10449425 55.0767026,2.66154893 C54.4277593,4.24099461 53.5952033,5.73711708 52.5965205,7.11849473 C47.5593505,1.8868754 40.3978043,-0.685464635 33.2166849,0.157494247 C26.0355656,1.00045313 19.6508329,5.16292914 15.9389816,11.4215562 C19.4743501,11.6237209 22.8329356,13.047627 25.4501116,15.4538953 C22.7843519,13.6826941 19.6562658,12.752166 16.4643959,12.7808677 C7.37136116,12.7808677 1.11358443e-15,20.2172087 0,29.3904002 C-1.11382944e-15,38.5635917 7.37136116,45.9999327 16.4643959,45.9999327 L54.4298213,45.9999327 C61.6033722,46.0217131 67.7183862,40.7571879 68.8248745,33.6069738 C69.9313627,26.4567597 65.6979135,19.5624626 58.8591207,17.3774493 Z M23.3880014,40.8790045 C22.6940432,41.7255194 21.4522703,41.846731 20.6103077,41.1501398 C19.7683452,40.4535487 19.643091,39.201338 20.3301296,38.3490981 C21.0171681,37.4968582 22.2579116,37.3653553 23.1055206,38.0549422 C23.5170311,38.3897338 23.778517,38.8768184 23.8315931,39.4074388 C23.8846691,39.9380592 23.7249152,40.4680251 23.3880014,40.8790045 L23.3880014,40.8790045 Z M54.9778343,33.8459212 C49.2321738,41.5657845 36.9668556,38.9753985 29.0997641,39.3344619 C29.0997641,39.3344619 27.7071336,39.4142537 26.3032037,39.64793 C26.3032037,39.64793 26.8342677,39.4199531 27.5122218,39.1834273 C33.0347222,37.2570236 35.64767,36.8694631 39.0063673,35.1282905 C45.3113397,31.8682227 51.590889,24.7695961 52.8648777,17.3945476 C50.4637903,24.4903245 43.1616605,30.5944025 36.5148862,33.0679504 C31.9612951,34.7606779 23.7298033,36.4135095 23.7298033,36.4163592 L23.3964759,36.2368275 C17.7977055,33.4897075 17.6423411,21.2616036 27.8060018,17.3204552 C32.2635496,15.5906814 36.5261855,16.5424844 41.3424838,15.3826526 C46.4808104,14.151578 52.4298571,10.2531753 54.8478931,5.18354194 C57.5625337,13.2995149 60.8195382,25.9949712 54.9778343,33.8459212 L54.9778343,33.8459212 Z" id="Shape"></path>
            </g>
            <g id="spring-boot-copy-18" opacity="0.501132246" transform="translate(34.000000, 63.000000)" fill-rule="nonzero" fill="#FFFFFF">
                <g id="Group" transform="translate(28.500000, 25.500000) scale(-1, 1) rotate(-180.000000) translate(-28.500000, -25.500000) ">
                    <path d="M15.4185,50.6035536 C13.4805,49.9239311 12.4545,48.7345919 10.089,44.6285397 C9.918,44.3170461 9.4905,43.5807885 9.177,43.0144364 C8.835,42.4197668 8.2935,41.485286 7.98,40.9472515 C7.2105,39.5880067 6.669,38.710161 4.275,34.5757912 C3.135,32.6218767 1.9665,30.5830094 1.653,30.044975 C1.3395,29.5069406 0.9975,28.9405886 0.8835,28.770683 C0.456,28.0910605 0,26.420322 0,25.5141588 C0,24.6079956 0.456,22.9372571 0.8835,22.2576346 C0.9975,22.1160466 1.3395,21.521377 1.653,20.9833426 C1.9665,20.4453082 3.135,18.4064409 4.275,16.4525264 C6.669,12.3181566 7.2105,11.4403109 7.98,10.0810661 C8.2935,9.54303165 8.835,8.60855081 9.177,8.04219878 C9.4905,7.44752915 9.918,6.71127152 10.089,6.3997779 C11.856,3.31315936 12.4545,2.43531371 13.4235,1.64242088 C14.022,1.10438645 15.0195,0.538034425 15.6465,0.368128817 C17.1855,-0.113270405 39.8145,-0.113270405 41.3535,0.368128817 C43.1775,0.906163243 44.5455,2.32204331 46.512,5.74847307 C47.481,7.47584675 48.621,9.40144364 48.9915,10.0527485 C49.362,10.7040533 49.9035,11.6102165 50.16,12.0632982 C50.4165,12.5446974 51.0435,13.5924486 51.5565,14.4136591 C52.041,15.2348695 52.44,15.9711272 52.44,16.0277624 C52.44,16.0843976 53.067,17.1604664 53.8365,18.4064409 C55.974,21.8611882 57,24.1549139 57,25.5141588 C57,26.8734037 55.974,29.1671294 53.8365,32.6218767 C53.067,33.8678512 52.44,34.94392 52.44,35.0005552 C52.44,35.0571904 52.041,35.7934481 51.5565,36.6146585 C51.0435,37.435869 50.4165,38.5119378 50.16,38.9650194 C49.9035,39.4464187 49.362,40.3242643 48.9915,40.9755691 C48.621,41.626874 47.481,43.5524708 46.512,45.2798445 C44.5455,48.7062743 43.1775,50.1221544 41.3535,50.6601888 C39.786,51.141588 16.758,51.0849528 15.4185,50.6035536 Z M30.1245,41.8817324 C30.78,41.2870627 30.78,41.2587451 30.78,33.4430872 L30.78,25.5991116 L30.0675,24.9478068 C29.07,24.0133259 27.5025,24.0133259 26.7615,24.9478068 C26.277,25.5991116 26.22,26.2504164 26.22,33.4147696 C26.22,41.0038867 26.22,41.2021099 26.847,41.8534148 C27.645,42.7029428 29.2125,42.7312604 30.1245,41.8817324 Z M21.318,39.1066074 C22.0875,38.6252082 22.23,38.3703498 22.23,37.4925042 C22.23,36.5580233 22.002,36.1898945 20.577,34.802332 C18.0405,32.3387007 17.0145,29.9600222 17.0145,26.5052748 C17.0145,23.1637979 17.841,21.0682954 20.1495,18.6896169 C22.572,16.1693504 24.9945,15.1782343 28.6425,15.2065519 C30.951,15.2348695 31.4355,15.3481399 33.174,16.1693504 C37.278,18.1515825 39.843,22.1443642 39.9,26.6185453 C39.9,29.3936702 38.532,32.5086063 36.3945,34.6324264 C34.3425,36.6429761 34.0575,37.1810105 34.599,38.2004442 C34.827,38.6252082 35.34,39.1632426 35.7105,39.3614659 C36.366,39.7012771 36.5655,39.6729595 37.7055,39.0216546 C39.9,37.7473626 42.18,34.6890616 43.32,31.4325375 C44.289,28.8273182 44.289,24.1549139 43.3485,21.5780122 C41.3535,16.1127152 37.392,12.6013326 31.635,11.1854525 C23.5125,9.20322043 14.7345,14.9516935 12.9675,23.3903387 C12.1695,27.1282621 12.597,29.8184342 14.592,33.8961688 C15.504,35.7368129 17.6415,38.1721266 19.152,39.1066074 C20.292,39.7862299 20.178,39.7862299 21.318,39.1066074 Z" id="Shape"></path>
                </g>
            </g>
            <g id="Group-9-Copy-16" transform="translate(29.000000, 48.000000)" stroke-linecap="round">
                <g id="Combined-Shape">
                    <use fill="#FFFFFF" fill-rule="evenodd" xlink:href="#path-1"></use>
                    <path stroke="#9EAFBF" stroke-width="3" d="M7.63043478,13.3695652 L2.2826087,13.3695652 C0.301324127,13.3695652 -1.5,12.2887707 -1.5,10.5 C-1.5,8.71122926 0.301324127,7.63043478 2.2826087,7.63043478 L7.63043478,7.63043478 L7.63043478,2.2826087 C7.63043478,0.301324127 8.71122926,-1.5 10.5,-1.5 C12.2887707,-1.5 13.3695652,0.301324127 13.3695652,2.2826087 L13.3695652,7.63043478 L18.7173913,7.63043478 C20.6986759,7.63043478 22.5,8.71122926 22.5,10.5 C22.5,12.2887707 20.6986759,13.3695652 18.7173913,13.3695652 L13.3695652,13.3695652 L13.3695652,18.7173913 C13.3695652,20.6986759 12.2887707,22.5 10.5,22.5 C8.71122926,22.5 7.63043478,20.6986759 7.63043478,18.7173913 L7.63043478,13.3695652 Z"></path>
                </g>
            </g>
            <path d="M125,109.8967 L125,0" id="Path-6-Copy-7" stroke-opacity="0.75" stroke="#FFFFFF"></path>
            <g id="I_java-Copy-4" transform="translate(167.000000, 34.000000)" fill-rule="nonzero">
                <g id="Shape">
                    <use fill="#FFFFFF" fill-rule="evenodd" xlink:href="#path-2"></use>
                    <path stroke="#9EAFBF" stroke-width="4" d="M30.8838073,0.883651056 L22.6056217,-15.9247225 L34.2452597,-1.24246773 C36.7868681,1.96352044 37.2034888,5.2721225 35.7481916,8.53455209 C34.7128748,10.8554859 33.0555827,12.7702435 29.9607732,15.6695443 C25.1209366,20.2036335 24.2021723,21.4085177 24.7158889,22.4971884 C26.2771109,25.8054697 27.4048466,27.6659749 29.4045958,30.3890105 L31.7427419,33.5728372 L27.7925926,33.5728372 C26.8547249,33.5728372 23.2716299,31.1517442 20.7509277,28.9221867 C16.7834318,25.4129425 14.6486487,21.9163239 15.5397258,18.3666462 C16.2022099,15.7413568 18.2249816,13.7570249 22.4281933,10.7643565 C22.687761,10.5795454 22.9604772,10.3871087 23.2849963,10.1594518 C23.4912505,10.0147602 23.7138965,9.85899892 24.1411378,9.56019638 C30.3397424,5.22239411 32.0229945,3.19670431 30.8838073,0.883651056 Z M45.0326104,8.5285315 L53.5922392,7.96945781 L46.1625393,12.2565744 C46.0972542,12.2942454 45.9674855,12.370378 45.7825662,12.4809063 C45.4703281,12.6675346 45.1213896,12.8805414 44.7451454,13.1158049 C43.6714373,13.7871888 42.5984964,14.499526 41.6033728,15.2178415 C40.7897348,15.8051543 40.0652832,16.3703117 39.4553332,16.8996054 C38.8521335,17.4230415 38.3771413,17.897886 38.0541722,18.3003864 C37.8074039,18.6079216 37.6971207,18.8143367 37.6946919,18.830421 C37.6603993,19.0539319 37.6963053,19.328583 37.8250765,19.7047466 C37.9693038,20.1260606 38.1192926,20.4353872 38.6663252,21.4800806 C40.1700217,24.3517598 40.599523,26.095056 39.6336083,28.4883201 C38.987617,30.0791772 37.8722724,31.2985071 36.4541952,32.1833695 C35.1207973,33.0153931 33.8127119,33.4137085 32.8559781,33.5522054 L24.6516712,34.739862 L31.4118828,29.9418709 C31.5745199,29.8264409 31.8848696,29.5587935 32.1916594,29.2005432 C32.6402419,28.6767164 32.8672486,28.1863662 32.851006,27.8183155 C32.8401336,27.5548232 32.6978961,27.1997746 32.3570729,26.6696991 C32.2444135,26.4944822 32.1127368,26.303778 31.9419226,26.0668228 C31.8342875,25.9175103 31.414408,25.3455441 31.4357918,25.3748162 C29.7874074,23.1183513 29.0903961,21.567355 29.2736026,19.3473473 C29.6411405,14.9456749 32.7639615,11.9935157 37.4923457,10.2010413 C39.1484894,9.57321689 40.9019918,9.12856557 42.6524293,8.83115545 C43.7043843,8.6524218 44.5328777,8.56117163 45.0326104,8.5285315 Z M20.9981504,33.5147963 C22.140393,33.5813487 23.3941334,33.6291133 24.7125474,33.6551548 C30.8243278,33.7758757 37.0747732,33.4266925 40.7489004,32.6822501 L47.5769844,31.2987608 L42.522493,36.0934339 C42.1489122,36.4478113 41.6265001,36.8261567 40.9442356,37.2639542 C40.7778422,37.370726 40.6031746,37.4800628 40.421091,37.5916435 C39.9536678,37.8780801 39.4573603,38.1673528 38.9616389,38.4463863 C38.6642113,38.6138034 38.4312223,38.7416263 38.2937643,38.8155685 L38.0252553,38.9600064 L37.7259051,39.0178764 C31.3146624,40.2572886 23.560346,40.8472688 17.3070618,40.5907693 C9.53228502,40.2718607 4.94814815,38.9325325 4.94814815,35.300186 C4.94814815,32.0634646 8.13140386,30.7423353 13.4672344,30.0257203 C14.9646661,29.8246116 16.5551448,29.6973223 18.1516543,29.6281204 C19.1492744,29.5848777 19.965173,29.571098 20.5077505,29.5727764 C20.5250388,29.57284 20.5250388,29.57284 20.530867,29.5728739 L37.6915514,29.676844 L20.9981504,33.5147963 Z M47.6430906,29.6845685 L47.6395908,29.6844109 C51.4018924,29.8504936 54.1111111,32.5191066 54.1111111,36.6157209 C54.1111111,40.8962645 51.6575546,43.928722 47.7787526,45.8259143 C46.4952114,46.4537175 45.13865,46.9146133 43.7844311,47.2398646 C42.9676787,47.4360291 42.3198078,47.5455517 41.918766,47.5919544 L33.6601489,48.5475207 L40.5805682,43.9403893 C40.7504279,43.8273087 41.0774385,43.5932018 41.5078143,43.2563068 C42.232617,42.6889365 42.9576976,42.0534449 43.6283724,41.3714238 C45.3980922,39.5717641 46.4199074,37.814964 46.4199074,36.3964651 C46.4199074,35.5689279 45.0704368,34.6985824 43.4208752,35.06103 L33.9487619,37.1422768 L41.8246572,31.4834084 C43.5629693,30.2344228 45.6549177,29.5933131 47.6430906,29.6845685 Z M17.8710865,39.4362377 C18.5401347,39.5900545 19.4137413,39.7198896 20.427311,39.800172 C24.6013285,40.1307857 29.9432799,39.6103647 33.4600779,38.4446456 L34.3628795,38.1453924 L42.556309,43.3708626 L38.9668084,44.8273814 C27.2614318,49.5770951 8.42222222,48.0787946 8.42222222,41.9874884 C8.42222222,39.073037 12.5199239,36.5890232 15.7418981,36.5890232 L21.3765381,36.5890232 L17.8710865,39.4362377 Z M20.978777,45.9963857 C21.5824454,46.0970835 22.360446,46.1635909 23.2523078,46.1783123 C26.6967755,46.2351676 30.8774849,45.5538613 33.0328483,44.5572668 L34.019967,44.1008439 L41.9013092,49.0749177 L39.3172317,50.7820374 C31.3567722,56.0409577 11.8962963,56.002615 11.8962963,49.1133022 C11.8962963,46.2220437 15.0175341,43.6052092 18.6731481,43.6052092 L23.0460686,43.6052092 L20.978777,45.9963857 Z M8.22172579,56.0762201 C9.13297,56.4628764 10.4722265,56.8226235 12.1338811,57.1190207 C15.7765502,57.768781 20.6541297,58.0636698 25.4244299,57.9177249 C30.4469508,57.7640635 34.9086371,57.1398499 37.8510591,56.1367552 C40.496224,55.2349979 41.2204088,54.4407233 40.9208332,53.7011332 L38.7863549,48.4315474 L43.7498962,51.2042336 C43.7608196,51.2103355 44.0973289,51.3922733 44.2356416,51.4704648 C44.5115532,51.6264444 44.7612481,51.7812231 45.0075341,51.9550461 C46.3152323,52.877989 47.162963,54.0779032 47.162963,55.6909767 C47.162963,61.8181977 36.541292,64.8933441 22.601203,65.0308107 C8.67906833,65.1681002 -2,62.319357 -2,56.2391162 C-2,52.8585815 1.43067098,50.3572661 6.14559242,50.5128555 L6.12551415,50.5122938 C6.80571419,50.5279032 7.55427015,50.6140669 8.3754933,50.7604286 C9.25592187,50.913093 10.0423021,51.2965135 10.7460332,51.8277014 C11.2646907,52.2191927 11.6445139,52.6127038 11.8865257,52.9208377 L15.2457998,57.1979274 L9.9158705,56.1162282 C9.29031011,55.9892719 8.70709366,55.9853823 8.22172579,56.0762201 Z M50.7049166,58.105766 L54.1564387,54.693057 L54.1110236,59.5466666 C54.0060843,70.7617286 24.7418772,75.9880532 6.19055968,68.3951013 L7.41364202,64.5990648 C24.0237759,68.5741901 43.5645483,65.1658392 50.7049166,58.105766 Z"></path>
                </g>
            </g>
            <text id="JMS" font-family="Rubik-Regular, Rubik" font-size="16" font-weight="normal" fill="#FFFFFF">
                <tspan x="177" y="24">JMS</tspan>
            </text>
        </g>
    </g>
</svg>