<?xml version="1.0" encoding="UTF-8"?>
<svg width="68px" height="90px" viewBox="0 -30 68 130" version="1.1" xmlns="http://www.w3.org/2000/svg" xmlns:xlink="http://www.w3.org/1999/xlink">
    <!-- Generator: Sketch 47.1 (45422) - http://www.bohemiancoding.com/sketch -->
    <title>icons8-Java</title>
    <desc>Created with Sketch.</desc>
    <defs></defs>
    <g id="Page-1" stroke="none" stroke-width="1" fill="none" fill-rule="evenodd">
        <g id="icons8-Java" fill-rule="nonzero" fill="#FFFFFF">
            <path d="M42.328125,0 C47.232423,9.88412926 24.732423,16.0154615 22.640625,24.2434285 C20.7246105,31.8195022 35.982423,40.5936478 36,40.5936478 C33.6796875,37.4575089 31.9921875,34.9027837 29.671875,30.0223853 C25.751952,21.7768006 52.9101585,13.2493156 42.328125,0 Z M58.5,13.5312159 C58.5,13.5312159 41.3789085,14.6411996 40.5,25.0891295 C40.1132835,29.740485 45,32.277588 45.140625,35.660392 C45.263673,38.4265379 42.1875,40.5936478 42.1875,40.5936478 C42.1875,40.5936478 47.214846,39.8712793 48.9375,35.660392 C50.8359375,30.9914189 45.685548,27.5733751 46.265625,23.820578 C46.810548,20.2263488 58.5,13.5312159 58.5,13.5312159 Z M26.578125,40.5936478 C26.578125,40.5936478 9,40.4879374 9,45.3859534 C9,50.5130168 31.939452,50.7949172 48.375,47.6411561 C48.375,47.6411561 52.136721,45.6326185 53.296875,44.5402524 C42.5214855,46.7073624 18.703125,45.9849939 18.703125,44.1174019 C18.703125,42.3907647 26.578125,40.5936478 26.578125,40.5936478 Z M61.59375,40.734598 C59.6601585,40.6465052 57.515625,41.2631633 55.6875,42.5669501 C59.484375,41.7388668 62.71875,44.0821667 62.71875,46.7954551 C62.71875,52.8739299 54,58.635269 54,58.635269 C54,58.635269 67.5,57.0848172 67.5,47.0773554 C67.5,42.9369432 64.810548,40.8755481 61.59375,40.734598 Z M20.390625,49.6144584 C17.6484375,49.6144584 13.5,51.8872787 13.5,53.9839136 C13.5,58.2124185 34.189452,61.4190371 49.5,55.252465 L44.15625,51.8696611 C33.767577,55.2877048 14.730471,54.1777212 20.390625,49.6144584 Z M24.1875,58.635269 C20.408202,58.635269 18,61.2780869 18,63.1456743 C18,68.9070135 40.5527355,69.0127239 49.5,63.1456743 L43.875,59.6219202 C37.1953125,62.6875886 20.3203125,63.0751993 24.1875,58.635269 Z M7.875,67.5151295 C2.496096,67.338944 0,70.0522325 0,72.3074351 C0,84.2881992 58.5,83.8477311 58.5,71.6026843 C58.5,69.5765245 56.232423,68.5370204 55.40625,68.0789301 C60.1875,79.7954116 7.03125,78.9320929 7.03125,72.0255348 C7.03125,70.4574653 9.7734375,68.9070135 13.359375,69.629382 C13.359375,69.629382 12.1464855,68.0965478 10.40625,67.7970298 C9.5097645,67.638462 8.6484375,67.5327471 7.875,67.5151295 Z M67.5,76.5359401 C58.21875,85.6448434 32.6601585,91.1771397 9,85.5567507 C32.765625,95.2118371 67.3945335,87.7238607 67.5,76.5359401 Z" id="Shape"></path>
        </g>
    </g>
</svg>