<?xml version="1.0" encoding="UTF-8"?>
<svg width="89px" height="96px" viewBox="0 -30 89 130" version="1.1" xmlns="http://www.w3.org/2000/svg" xmlns:xlink="http://www.w3.org/1999/xlink">
    <!-- Generator: Sketch 47.1 (45422) - http://www.bohemiancoding.com/sketch -->
    <title>Group 2 Copy</title>
    <desc>Created with Sketch.</desc>
    <defs></defs>
    <g id="Page-1" stroke="none" stroke-width="1" fill="none" fill-rule="evenodd">
        <g id="Group-2-Copy" transform="translate(0.000000, 5.000000)">
            <path d="M26,31.7622878 L26,18.7930441 L26,18.7930441 C26,8.41393246 34.4139325,1.90661189e-15 44.7930441,0 L44.7930441,0 L44.7930441,0 C55.1721558,-1.90661189e-15 63.5860883,8.41393246 63.5860883,18.7930441 L63.5860883,31.3821271" id="Path-2" stroke="#FFFFFF" stroke-width="10" opacity="0.690896739"></path>
            <path d="M6,32 L83,32 C86.3137085,32 89,34.6862915 89,38 L89,85 C89,88.3137085 86.3137085,91 83,91 L6,91 C2.6862915,91 4.05812251e-16,88.3137085 0,85 L0,38 L0,38 C-4.05812251e-16,34.6862915 2.6862915,32 6,32 L6,32 Z M45,51 C48.8659932,51 52,47.8659932 52,44 C52,40.1340068 48.8659932,37 45,37 C41.1340068,37 38,40.1340068 38,44 C38,47.8659932 41.1340068,51 45,51 Z M61,68 C61,59.163444 53.836556,52 45,52 C36.163444,52 29,59.163444 29,68 C42.6670445,67.8905908 47.8864942,68 61,68 Z" id="Combined-Shape" fill="#FFFFFF"></path>
            <path d="M19.5755457,72.4324834 L23.5925989,72.4324834 L23.5925989,82.2312555 L29.8620396,82.2312555 L29.8620396,85.4324834 L19.5755457,85.4324834 L19.5755457,72.4324834 Z M31.741985,72.4324834 L37.709925,72.4324834 C38.8863747,72.4324834 39.8366835,72.5920998 40.5608799,72.9113374 C41.2850764,73.230575 41.8836379,73.6887332 42.3565825,74.2858258 C42.8295271,74.8829184 43.1724068,75.5775453 43.3852319,76.3697276 C43.598057,77.1619098 43.7044679,78.0013739 43.7044679,78.888145 C43.7044679,80.2774198 43.5463295,81.3548306 43.2300477,82.1204097 C42.913766,82.8859888 42.4748209,83.5274103 41.9131992,84.0446934 C41.3515775,84.5619766 40.7485821,84.9063342 40.1041951,85.0777767 C39.2233358,85.314249 38.4252537,85.4324834 37.709925,85.4324834 L31.741985,85.4324834 L31.741985,72.4324834 Z M35.7590382,75.3765488 L35.7590382,82.4795502 L36.7433492,82.4795502 C37.5828259,82.4795502 38.1799095,82.3864406 38.534618,82.2002187 C38.8893265,82.0139967 39.1671773,81.6888522 39.3681787,81.2247753 C39.5691802,80.7606984 39.6696794,80.0084322 39.6696794,78.967954 C39.6696794,77.5905028 39.4450341,76.6475837 38.9957367,76.1391682 C38.5464393,75.6307528 37.8015627,75.3765488 36.7610846,75.3765488 L35.7590382,75.3765488 Z M53.0332538,83.2865079 L48.4575375,83.2865079 L47.8279332,85.4324834 L43.7222033,85.4324834 L48.6082879,72.4324834 L52.9889154,72.4324834 L57.875,85.4324834 L53.6717258,85.4324834 L53.0332538,83.2865079 Z M52.1908254,80.4754574 L50.7542633,75.8021969 L49.3265689,80.4754574 L52.1908254,80.4754574 Z M59.1430764,72.4324834 L65.8204297,72.4324834 C67.2747344,72.4324834 68.3639686,72.7783189 69.0881651,73.4700004 C69.8123615,74.1616819 70.1744543,75.1459831 70.1744543,76.4229336 C70.1744543,77.7353549 69.7798471,78.7610381 68.9906207,79.500014 C68.2013944,80.23899 66.9968817,80.6084724 65.3770464,80.6084724 L63.1778649,80.6084724 L63.1778649,85.4324834 L59.1430764,85.4324834 L59.1430764,72.4324834 Z M63.1778649,77.9747753 L64.162176,77.9747753 C64.9366228,77.9747753 65.4805009,77.8402837 65.7938267,77.5712964 C66.1071525,77.3023092 66.2638131,76.9579516 66.2638131,76.5382132 C66.2638131,76.1302985 66.1278436,75.7844629 65.8559004,75.5006962 C65.5839573,75.2169294 65.0725936,75.0750482 64.321794,75.0750482 L63.1778649,75.0750482 L63.1778649,77.9747753 Z" id="LDAP" fill="#9EAFBF"></path>
        </g>
    </g>
</svg>