<?xml version="1.0" encoding="UTF-8"?>
<svg width="146px" height="94px" viewBox="0 -10 146 130" version="1.1" xmlns="http://www.w3.org/2000/svg" xmlns:xlink="http://www.w3.org/1999/xlink">
    <!-- Generator: Sketch 47.1 (45422) - http://www.bohemiancoding.com/sketch -->
    <title>Group 3</title>
    <desc>Created with Sketch.</desc>
    <defs></defs>
    <g id="Page-1" stroke="none" stroke-width="1" fill="none" fill-rule="evenodd">
        <g id="Group-3" transform="translate(2.000000, 2.000000)">
            <circle id="Oval" stroke="#FFFFFF" stroke-width="4" cx="74.2021277" cy="11.0106383" r="11.0106383"></circle>
            <circle id="Oval-Copy-4" stroke="#FFFFFF" stroke-width="4" cx="33.0319149" cy="30.1595745" r="11.0106383"></circle>
            <circle id="Oval-Copy-5" stroke="#FFFFFF" stroke-width="4" cx="11.0106383" cy="78.9893617" r="11.0106383"></circle>
            <circle id="Oval-Copy-3" stroke="#FFFFFF" stroke-width="4" cx="130.691489" cy="52.1808511" r="11.0106383"></circle>
            <circle id="Oval-Copy" stroke="#FFFFFF" stroke-width="4" cx="75.6382979" cy="58.4042553" r="25.8510638"></circle>
            <path d="M51.8774934,52.7224069 L56.5337434,52.7224069 L58.3306184,59.6911569 L60.1196809,52.7224069 L64.7603059,52.7224069 L64.7603059,64.1755319 L61.8696809,64.1755319 L61.8696809,55.4411569 L59.6274934,64.1755319 L57.0103059,64.1755319 L54.7759309,55.4411569 L54.7759309,64.1755319 L51.8774934,64.1755319 L51.8774934,52.7224069 Z M77.1899934,62.5036569 C77.6327039,62.8109501 77.9217635,63.0036565 78.0571809,63.0817819 C78.2603069,63.1963658 78.5337416,63.329177 78.8774934,63.4802194 L77.8931184,65.4645944 C77.3983242,65.2250099 76.9087458,64.9398565 76.4243684,64.6091257 C75.9399909,64.2783948 75.6014526,64.0296994 75.4087434,63.8630319 C74.6274894,64.2015753 73.6483326,64.3708444 72.4712434,64.3708444 C70.7316513,64.3708444 69.3592692,63.9177239 68.3540559,63.0114694 C67.1665499,61.9385474 66.5728059,60.43075 66.5728059,58.4880319 C66.5728059,56.6026058 67.0923319,55.1377767 68.1313996,54.0935007 C69.1704673,53.0492246 70.6222757,52.5270944 72.4868684,52.5270944 C74.3879195,52.5270944 75.8553528,53.037506 76.8892121,54.0583444 C77.9230714,55.0791829 78.4399934,56.5401057 78.4399934,58.4411569 C78.4399934,60.1338737 78.0233309,61.4880268 77.1899934,62.5036569 Z M74.4790559,60.6911569 C74.7603073,60.1859461 74.9009309,59.4307453 74.9009309,58.4255319 C74.9009309,57.2692761 74.6860892,56.4437636 74.2563996,55.9489694 C73.82671,55.4541753 73.234268,55.2067819 72.4790559,55.2067819 C71.7759273,55.2067819 71.2056205,55.4593836 70.7681184,55.9645944 C70.3306162,56.4698053 70.1118684,57.2588599 70.1118684,58.3317819 C70.1118684,59.5817882 70.3254079,60.4593836 70.7524934,60.9645944 C71.1795788,61.4698053 71.7655105,61.7224069 72.5103059,61.7224069 C72.7498904,61.7224069 72.9764506,61.6989696 73.1899934,61.6520944 C72.8931169,61.3656346 72.4243716,61.094804 71.7837434,60.8395944 L72.3384309,59.5661569 C72.6509324,59.6234489 72.8944196,59.6937607 73.0688996,59.7770944 C73.2433796,59.8604282 73.58322,60.079176 74.0884309,60.4333444 C74.2082231,60.5166782 74.3384301,60.6026148 74.4790559,60.6911569 Z M79.2524934,52.7224069 L90.0103059,52.7224069 L90.0103059,55.5505319 L86.4009309,55.5505319 L86.4009309,64.1755319 L82.8618684,64.1755319 L82.8618684,55.5505319 L79.2524934,55.5505319 L79.2524934,52.7224069 Z M90.8071809,52.7224069 L101.564993,52.7224069 L101.564993,55.5505319 L97.9556184,55.5505319 L97.9556184,64.1755319 L94.4165559,64.1755319 L94.4165559,55.5505319 L90.8071809,55.5505319 L90.8071809,52.7224069 Z" id="MQTT" fill="#FFFFFF"></path>
            <path d="M22.5,76.1170213 L50.2032222,67.5326671" id="Path-4" stroke="#FFFFFF" stroke-width="3"></path>
            <path d="M74.5623535,33.9893617 L74.5623535,22.0212766" id="Path-4" stroke="#FFFFFF" stroke-width="3"></path>
            <path d="M56.0106383,42.606383 L42.606383,34.9468085" id="Path-4" stroke="#FFFFFF" stroke-width="3"></path>
            <path d="M63.6702128,12.9255319 L42.606383,22.5" id="Path-4" stroke="#FFFFFF" stroke-width="3"></path>
            <path d="M83.7765957,14.8404255 L123.989362,42.606383" id="Path-4" stroke="#FFFFFF" stroke-width="3"></path>
            <path d="M102.925532,54.0957447 L120.159574,51.2234043" id="Path-4" stroke="#FFFFFF" stroke-width="3"></path>
        </g>
    </g>
</svg>