<?xml version="1.0" encoding="UTF-8"?>
<svg width="137px" height="90px" viewBox="0 -30 137 130" version="1.1" xmlns="http://www.w3.org/2000/svg" xmlns:xlink="http://www.w3.org/1999/xlink">
    <!-- Generator: Sketch 47.1 (45422) - http://www.bohemiancoding.com/sketch -->
    <title>Shape</title>
    <desc>Created with Sketch.</desc>
    <defs></defs>
    <g id="Page-1" stroke="none" stroke-width="1" fill="none" fill-rule="evenodd">
        <path d="M116.174297,33.9993574 C114.903079,25.4743892 112.271434,15.8566192 108.708678,5.20737834 C107.427814,8.29759815 105.784541,11.2247943 103.813372,13.9274897 C93.871163,3.69171274 79.7359263,-1.34112646 65.5620569,0.308140919 C51.3881875,1.9574083 38.7862011,10.1013831 31.4598648,22.3465231 C38.437865,22.7420626 45.0669363,25.5279658 50.2326366,30.2358822 C44.9710433,26.7704884 38.7969245,24.94989 32.4969113,25.0060456 C14.5493628,25.0060456 2.19795822e-15,39.5554084 0,57.5029569 C-2.19844182e-15,75.4505055 14.5493628,89.9998683 32.4969113,89.9998683 L107.431884,89.9998683 C121.590815,90.0424821 133.660439,79.7423242 135.844391,65.7527748 C138.028343,51.7632255 129.672493,38.2743834 116.174297,33.9993574 Z M46.1625079,79.980661 C44.7927948,81.6368859 42.3418221,81.8740389 40.6799827,80.5111432 C39.0181433,79.1482475 38.7709205,76.6982701 40.1269758,75.0308442 C41.483031,73.3634183 43.9319718,73.10613 45.604956,74.4553218 C46.4171827,75.1103487 46.9332954,76.0633404 47.0380553,77.1015108 C47.1428151,78.1396811 46.8274977,79.1765709 46.1625079,79.980661 L46.1625079,79.980661 Z M108.513535,66.2202806 C97.1729294,81.324361 72.9640268,76.2562144 57.4362069,76.9587298 C57.4362069,76.9587298 54.6874762,77.1148443 51.9164433,77.5720369 C51.9164433,77.5720369 52.9646408,77.1259953 54.3027654,76.6632273 C65.2029046,72.8941766 70.3602595,72.135906 76.9895514,68.729264 C89.4341093,62.3508705 101.828488,48.4622532 104.343047,34.0328105 C99.6038556,47.9158524 85.1911395,59.8586136 72.0719438,64.6981639 C63.0842075,68.0100221 46.8371457,71.243823 46.8371457,71.2493985 L46.1792345,70.8981408 C35.1285562,65.5233407 34.8219027,41.5987896 54.8826193,33.8878471 C63.680788,30.5035071 72.0942459,32.3657304 81.6005054,30.0964943 C91.7423741,27.6878701 103.484417,20.0605604 108.257061,10.1417125 C113.615134,26.02079 120.043708,50.8597263 108.513535,66.2202806 L108.513535,66.2202806 Z" id="Shape" fill="#FFFFFF" fill-rule="nonzero"></path>
    </g>
</svg>