<?xml version="1.0" encoding="UTF-8"?>
<svg width="220px" height="114px" viewBox="0 0 220 114" version="1.1" xmlns="http://www.w3.org/2000/svg" xmlns:xlink="http://www.w3.org/1999/xlink">
    <!-- Generator: Sketch 47.1 (45422) - http://www.bohemiancoding.com/sketch -->
    <title>Group 14</title>
    <desc>Created with Sketch.</desc>
    <defs>
        <path d="M9.13043478,11.8695652 L9.13043478,18.7173913 C9.13043478,19.9780413 9.74361002,21 10.5,21 C11.25639,21 11.8695652,19.9780413 11.8695652,18.7173913 L11.8695652,11.8695652 L18.7173913,11.8695652 C19.9780413,11.8695652 21,11.25639 21,10.5 C21,9.74361002 19.9780413,9.13043478 18.7173913,9.13043478 L11.8695652,9.13043478 L11.8695652,2.2826087 C11.8695652,1.02195872 11.25639,0 10.5,0 C9.74361002,0 9.13043478,1.02195872 9.13043478,2.2826087 L9.13043478,9.13043478 L2.2826087,9.13043478 C1.02195872,9.13043478 0,9.74361002 0,10.5 C0,11.25639 1.02195872,11.8695652 2.2826087,11.8695652 L9.13043478,11.8695652 Z" id="path-1"></path>
    </defs>
    <g id="ICONS" stroke="none" stroke-width="1" fill="none" fill-rule="evenodd">
        <g id="Group-14">
            <g id="I_spring_cloud-Copy-19" opacity="0.501132246" transform="translate(0.000000, 1.000000)" fill-rule="nonzero" fill="#FFFFFF">
                <path d="M58.8591207,17.3774493 C58.2150645,13.0202434 56.8817549,8.10449425 55.0767026,2.66154893 C54.4277593,4.24099461 53.5952033,5.73711708 52.5965205,7.11849473 C47.5593505,1.8868754 40.3978043,-0.685464635 33.2166849,0.157494247 C26.0355656,1.00045313 19.6508329,5.16292914 15.9389816,11.4215562 C19.4743501,11.6237209 22.8329356,13.047627 25.4501116,15.4538953 C22.7843519,13.6826941 19.6562658,12.752166 16.4643959,12.7808677 C7.37136116,12.7808677 1.11358443e-15,20.2172087 0,29.3904002 C-1.11382944e-15,38.5635917 7.37136116,45.9999327 16.4643959,45.9999327 L54.4298213,45.9999327 C61.6033722,46.0217131 67.7183862,40.7571879 68.8248745,33.6069738 C69.9313627,26.4567597 65.6979135,19.5624626 58.8591207,17.3774493 Z M23.3880014,40.8790045 C22.6940432,41.7255194 21.4522703,41.846731 20.6103077,41.1501398 C19.7683452,40.4535487 19.643091,39.201338 20.3301296,38.3490981 C21.0171681,37.4968582 22.2579116,37.3653553 23.1055206,38.0549422 C23.5170311,38.3897338 23.778517,38.8768184 23.8315931,39.4074388 C23.8846691,39.9380592 23.7249152,40.4680251 23.3880014,40.8790045 L23.3880014,40.8790045 Z M54.9778343,33.8459212 C49.2321738,41.5657845 36.9668556,38.9753985 29.0997641,39.3344619 C29.0997641,39.3344619 27.7071336,39.4142537 26.3032037,39.64793 C26.3032037,39.64793 26.8342677,39.4199531 27.5122218,39.1834273 C33.0347222,37.2570236 35.64767,36.8694631 39.0063673,35.1282905 C45.3113397,31.8682227 51.590889,24.7695961 52.8648777,17.3945476 C50.4637903,24.4903245 43.1616605,30.5944025 36.5148862,33.0679504 C31.9612951,34.7606779 23.7298033,36.4135095 23.7298033,36.4163592 L23.3964759,36.2368275 C17.7977055,33.4897075 17.6423411,21.2616036 27.8060018,17.3204552 C32.2635496,15.5906814 36.5261855,16.5424844 41.3424838,15.3826526 C46.4808104,14.151578 52.4298571,10.2531753 54.8478931,5.18354194 C57.5625337,13.2995149 60.8195382,25.9949712 54.9778343,33.8459212 L54.9778343,33.8459212 Z" id="Shape"></path>
            </g>
            <g id="spring-boot-copy-19" opacity="0.501132246" transform="translate(34.000000, 63.000000)" fill-rule="nonzero" fill="#FFFFFF">
                <g id="Group" transform="translate(28.500000, 25.500000) scale(-1, 1) rotate(-180.000000) translate(-28.500000, -25.500000) ">
                    <path d="M15.4185,50.6035536 C13.4805,49.9239311 12.4545,48.7345919 10.089,44.6285397 C9.918,44.3170461 9.4905,43.5807885 9.177,43.0144364 C8.835,42.4197668 8.2935,41.485286 7.98,40.9472515 C7.2105,39.5880067 6.669,38.710161 4.275,34.5757912 C3.135,32.6218767 1.9665,30.5830094 1.653,30.044975 C1.3395,29.5069406 0.9975,28.9405886 0.8835,28.770683 C0.456,28.0910605 0,26.420322 0,25.5141588 C0,24.6079956 0.456,22.9372571 0.8835,22.2576346 C0.9975,22.1160466 1.3395,21.521377 1.653,20.9833426 C1.9665,20.4453082 3.135,18.4064409 4.275,16.4525264 C6.669,12.3181566 7.2105,11.4403109 7.98,10.0810661 C8.2935,9.54303165 8.835,8.60855081 9.177,8.04219878 C9.4905,7.44752915 9.918,6.71127152 10.089,6.3997779 C11.856,3.31315936 12.4545,2.43531371 13.4235,1.64242088 C14.022,1.10438645 15.0195,0.538034425 15.6465,0.368128817 C17.1855,-0.113270405 39.8145,-0.113270405 41.3535,0.368128817 C43.1775,0.906163243 44.5455,2.32204331 46.512,5.74847307 C47.481,7.47584675 48.621,9.40144364 48.9915,10.0527485 C49.362,10.7040533 49.9035,11.6102165 50.16,12.0632982 C50.4165,12.5446974 51.0435,13.5924486 51.5565,14.4136591 C52.041,15.2348695 52.44,15.9711272 52.44,16.0277624 C52.44,16.0843976 53.067,17.1604664 53.8365,18.4064409 C55.974,21.8611882 57,24.1549139 57,25.5141588 C57,26.8734037 55.974,29.1671294 53.8365,32.6218767 C53.067,33.8678512 52.44,34.94392 52.44,35.0005552 C52.44,35.0571904 52.041,35.7934481 51.5565,36.6146585 C51.0435,37.435869 50.4165,38.5119378 50.16,38.9650194 C49.9035,39.4464187 49.362,40.3242643 48.9915,40.9755691 C48.621,41.626874 47.481,43.5524708 46.512,45.2798445 C44.5455,48.7062743 43.1775,50.1221544 41.3535,50.6601888 C39.786,51.141588 16.758,51.0849528 15.4185,50.6035536 Z M30.1245,41.8817324 C30.78,41.2870627 30.78,41.2587451 30.78,33.4430872 L30.78,25.5991116 L30.0675,24.9478068 C29.07,24.0133259 27.5025,24.0133259 26.7615,24.9478068 C26.277,25.5991116 26.22,26.2504164 26.22,33.4147696 C26.22,41.0038867 26.22,41.2021099 26.847,41.8534148 C27.645,42.7029428 29.2125,42.7312604 30.1245,41.8817324 Z M21.318,39.1066074 C22.0875,38.6252082 22.23,38.3703498 22.23,37.4925042 C22.23,36.5580233 22.002,36.1898945 20.577,34.802332 C18.0405,32.3387007 17.0145,29.9600222 17.0145,26.5052748 C17.0145,23.1637979 17.841,21.0682954 20.1495,18.6896169 C22.572,16.1693504 24.9945,15.1782343 28.6425,15.2065519 C30.951,15.2348695 31.4355,15.3481399 33.174,16.1693504 C37.278,18.1515825 39.843,22.1443642 39.9,26.6185453 C39.9,29.3936702 38.532,32.5086063 36.3945,34.6324264 C34.3425,36.6429761 34.0575,37.1810105 34.599,38.2004442 C34.827,38.6252082 35.34,39.1632426 35.7105,39.3614659 C36.366,39.7012771 36.5655,39.6729595 37.7055,39.0216546 C39.9,37.7473626 42.18,34.6890616 43.32,31.4325375 C44.289,28.8273182 44.289,24.1549139 43.3485,21.5780122 C41.3535,16.1127152 37.392,12.6013326 31.635,11.1854525 C23.5125,9.20322043 14.7345,14.9516935 12.9675,23.3903387 C12.1695,27.1282621 12.597,29.8184342 14.592,33.8961688 C15.504,35.7368129 17.6415,38.1721266 19.152,39.1066074 C20.292,39.7862299 20.178,39.7862299 21.318,39.1066074 Z" id="Shape"></path>
                </g>
            </g>
            <g id="I_dev_JNDI-Copy-3" transform="translate(140.000000, 28.000000)">
                <path d="M31.1014493,50.4347826 L64.7246377,50.4347826" id="Line" stroke="#FFFFFF" stroke-width="4" opacity="0.641441231" stroke-linecap="square"></path>
                <path d="M31.1014493,18.4927536 L58.8405797,18.4927536" id="Line-Copy" stroke="#FFFFFF" stroke-width="4" opacity="0.641441231" stroke-linecap="square"></path>
                <path d="M53.0030268,37.4960646 C53.0030268,37.9644611 52.9627228,38.417902 52.8821136,38.8564008 C52.8015044,39.2948996 52.6377692,39.6885461 52.3909034,40.037352 C52.1440376,40.386158 51.7863395,40.6651985 51.3177982,40.874482 C50.849257,41.0837656 50.2270637,41.1884058 49.4511997,41.1884058 C48.8768588,41.1884058 48.3881726,41.1012056 47.9851264,40.9268027 C47.5820802,40.7523997 47.249572,40.5132221 46.987592,40.2092627 C46.7256119,39.9053032 46.5341679,39.5440454 46.413254,39.1254783 C46.29234,38.7069112 46.2318841,38.2534703 46.2318841,37.7651421 L46.2318841,37.1970896 L48.1211538,37.1970896 L48.1211538,37.7501933 C48.1211538,38.3581122 48.2244328,38.8289931 48.430994,39.1628502 C48.6375552,39.4967072 49.0280004,39.6636333 49.6023413,39.6636333 C49.904626,39.6636333 50.1540071,39.6187875 50.3504921,39.5290945 C50.5469771,39.4394016 50.7031552,39.3073556 50.819031,39.1329527 C50.9349068,38.9585497 51.0129959,38.741795 51.0533005,38.4826821 C51.0936051,38.2235691 51.1137571,37.9295799 51.1137571,37.6007058 L51.1137571,30.2608696 L53.0030268,30.2608696 L53.0030268,37.4960646 Z M55.2248081,30.2608696 L57.2198769,30.2608696 L62.1470924,38.1239121 L62.1773207,38.1239121 L62.1773207,30.2608696 L63.9759055,30.2608696 L63.9759055,40.934277 L61.9808367,40.934277 L57.0687353,33.0861833 L57.0233929,33.0861833 L57.0233929,40.934277 L55.2248081,40.934277 L55.2248081,30.2608696 Z M66.2128009,30.2608696 L70.6865917,30.2608696 C71.5128365,30.2608696 72.2282328,30.4003899 72.8328021,30.6794346 C73.4373715,30.9584792 73.9310957,31.3396686 74.3139896,31.8230139 C74.6968835,32.3063592 74.9815307,32.8719147 75.1679395,33.5196971 C75.3543484,34.1674795 75.4475515,34.860098 75.4475515,35.5975733 C75.4475515,36.3350486 75.3543484,37.0276671 75.1679395,37.6754496 C74.9815307,38.323232 74.6968835,38.8887874 74.3139896,39.3721327 C73.9310957,39.855478 73.4373715,40.2366674 72.8328021,40.515712 C72.2282328,40.7947567 71.5128365,40.934277 70.6865917,40.934277 L66.2128009,40.934277 L66.2128009,30.2608696 Z M68.1020707,39.4095046 L69.9611121,39.4095046 C70.6966714,39.4095046 71.2987127,39.3123386 71.767254,39.1180039 C72.2357953,38.9236692 72.6035694,38.6545944 72.8705875,38.3107714 C73.1376057,37.9669485 73.3189737,37.5633363 73.4146972,37.0999227 C73.5104207,36.6365091 73.5582817,36.135731 73.5582817,35.5975733 C73.5582817,35.0594156 73.5104207,34.5586375 73.4146972,34.0952239 C73.3189737,33.6318103 73.1376057,33.2281981 72.8705875,32.8843752 C72.6035694,32.5405522 72.2357953,32.2714774 71.767254,32.0771427 C71.2987127,31.882808 70.6966714,31.7856421 69.9611121,31.7856421 L68.1020707,31.7856421 L68.1020707,39.4095046 Z M77.125223,30.2608696 L79.0144928,30.2608696 L79.0144928,40.934277 L77.125223,40.934277 L77.125223,30.2608696 Z" id="JNDI" fill="#FFFFFF" fill-rule="nonzero"></path>
                <rect id="Rectangle-33-Copy-7" stroke="#FFFFFF" stroke-width="3" x="67.2463768" y="45.3913043" width="10.9275362" height="10.9275362" rx="5"></rect>
                <g id="Rectangle-33-Copy" transform="translate(60.521739, 0.840580)">
                    <g id="path-1-link" fill-rule="nonzero" fill="#FFFFFF">
                        <rect id="path-1" x="0" y="0" width="19.3333333" height="24.3768116" rx="9"></rect>
                    </g>
                    <rect id="Rectangle-path" stroke="#DCE3EE" stroke-width="2" x="1.07407407" y="1.05986137" width="17.1851852" height="22.2570888" rx="6"></rect>
                </g>
                <g id="Rectangle-33-Copy" transform="translate(60.521739, 0.000000)">
                    <g id="path-2-link" fill-rule="nonzero" fill="#FFFFFF">
                        <path d="M5.90740741,0 L13.4259259,0 L13.4259259,0 C16.6884969,0 19.3333333,2.63438251 19.3333333,5.88405797 L19.3333333,5.88405797 L19.3333333,5.88405797 C19.3333333,9.13373343 16.6884969,11.7681159 13.4259259,11.7681159 L5.90740741,11.7681159 L5.90740741,11.7681159 C2.64483641,11.7681159 0,9.13373343 0,5.88405797 L0,5.88405797 L0,5.88405797 C0,2.63438251 2.64483641,0 5.90740741,0 Z" id="path-2"></path>
                    </g>
                    <path d="M5.90740741,1.06982872 C3.23803109,1.06982872 1.07407407,3.22523255 1.07407407,5.88405797 C1.07407407,8.54288339 3.23803109,10.6982872 5.90740741,10.6982872 L13.4259259,10.6982872 C16.0953022,10.6982872 18.2592593,8.54288339 18.2592593,5.88405797 C18.2592593,3.22523255 16.0953022,1.06982872 13.4259259,1.06982872 L5.90740741,1.06982872 Z" id="Shape" stroke="#DCE3EE" stroke-width="2"></path>
                </g>
                <g id="Group-4-Copy-3" transform="translate(0.000000, 12.608696)">
                    <rect id="Rectangle-33-Copy" stroke="#FFFFFF" stroke-width="2" x="0" y="0" width="27.7391304" height="45.3913043" rx="4"></rect>
                    <rect id="Rectangle-33-Copy-2" fill-opacity="0.400000006" fill="#FFFFFF" fill-rule="nonzero" x="3.2006689" y="4.32298137" width="21.3377926" height="9.72670807" rx="1"></rect>
                    <rect id="Rectangle-33-Copy-4" fill-opacity="0.400000006" fill="#FFFFFF" fill-rule="nonzero" x="3.2006689" y="17.2919255" width="21.3377926" height="10.8074534" rx="1"></rect>
                    <rect id="Rectangle-33-Copy-6" fill-opacity="0.400000006" fill="#FFFFFF" fill-rule="nonzero" x="3.2006689" y="31.3416149" width="21.3377926" height="9.72670807" rx="1"></rect>
                </g>
            </g>
            <g id="Group-9-Copy-17" transform="translate(29.000000, 48.000000)" stroke-linecap="round">
                <g id="Combined-Shape">
                    <use fill="#FFFFFF" fill-rule="evenodd" xlink:href="#path-1"></use>
                    <path stroke="#9EAFBF" stroke-width="3" d="M7.63043478,13.3695652 L2.2826087,13.3695652 C0.301324127,13.3695652 -1.5,12.2887707 -1.5,10.5 C-1.5,8.71122926 0.301324127,7.63043478 2.2826087,7.63043478 L7.63043478,7.63043478 L7.63043478,2.2826087 C7.63043478,0.301324127 8.71122926,-1.5 10.5,-1.5 C12.2887707,-1.5 13.3695652,0.301324127 13.3695652,2.2826087 L13.3695652,7.63043478 L18.7173913,7.63043478 C20.6986759,7.63043478 22.5,8.71122926 22.5,10.5 C22.5,12.2887707 20.6986759,13.3695652 18.7173913,13.3695652 L13.3695652,13.3695652 L13.3695652,18.7173913 C13.3695652,20.6986759 12.2887707,22.5 10.5,22.5 C8.71122926,22.5 7.63043478,20.6986759 7.63043478,18.7173913 L7.63043478,13.3695652 Z"></path>
                </g>
            </g>
            <path d="M114,109.8967 L114,0" id="Path-6-Copy-8" stroke-opacity="0.75" stroke="#FFFFFF"></path>
        </g>
    </g>
</svg>